<?xml version="1.0" encoding="utf-8"?>
<!-- Generator: Adobe Illustrator 24.0.3, SVG Export Plug-In . SVG Version: 6.00 Build 0)  -->
<svg version="1.1" id="Layer_1" xmlns="http://www.w3.org/2000/svg" xmlns:xlink="http://www.w3.org/1999/xlink" x="0px" y="0px"
	 viewBox="0 0 232 52" style="enable-background:new 0 0 232 52;" xml:space="preserve">
<style type="text/css">
	.st0{fill-rule:evenodd;clip-rule:evenodd;fill:#FE0000;}
	.st1{fill:#FFFFFF;}
</style>
<g>
	<path class="st0" d="M0,0h232v52H0V0z"/>
	<g>
		<path id="SVGID_7_" class="st1" d="M46.2,16.1L37,35.8h4.6l1.5-3.5h6.7l1.5,3.5H56l-9.2-19.7H46.2z M44.5,28.8l1.9-4.7l1.9,4.7
			H44.5z"/>
		<path id="SVGID_6_" class="st1" d="M61.7,32v-4.5c0.5-0.1,1-0.1,1.7-0.1c2.4,0,3.6,0.9,3.6,2.3c0,1.5-1.1,2.3-3.4,2.3
			C62.7,32.1,62.3,32.1,61.7,32 M61.7,24.3v-4.1c0.6-0.1,1.2-0.2,2.1-0.2c1.9,0,2.9,1,2.9,2.1c0,1.4-1.1,2.2-3.3,2.2
			C62.6,24.3,62.2,24.3,61.7,24.3 M57.3,16.5v19.1c1.9,0.2,4.1,0.4,5.8,0.4c5.9,0,8.8-2.7,8.8-5.7c0-2.2-1.3-3.8-3.9-4.6
			c2.2-0.9,3.4-2.3,3.4-4.3c0-2.7-2.9-5.3-8.6-5.3C61.2,16,58.7,16.2,57.3,16.5"/>
		<polygon id="SVGID_5_" class="st1" points="73.6,16.2 73.6,35.8 86,35.8 86,31.6 78.2,31.6 78.2,27.8 85.3,27.8 85.3,23.9 
			78.2,23.9 78.2,20.4 86,20.4 86,16.2 		"/>
		<path id="SVGID_4_" class="st1" d="M92.9,25.7v-5.4c0.6-0.1,1.1-0.1,1.8-0.1c1.9,0,3.2,1,3.2,2.6c0,2-1.4,3-3.5,3
			C93.8,25.7,93.5,25.7,92.9,25.7 M88.4,16.4v19.4h4.5v-6.4c0.6,0,1,0.1,1.7,0.1c0.3,0,0.5,0,0.8,0l3.3,6.4h5.1l-4.6-7.5
			c2.1-1.3,3.4-3.3,3.4-5.7c0-3.6-2.4-6.5-8.5-6.5C91.8,16.1,90,16.2,88.4,16.4"/>
		<polygon id="SVGID_3_" class="st1" points="105.7,16.2 105.7,35.8 118,35.8 118,31.6 110.2,31.6 110.2,16.2 		"/>
		<polygon id="SVGID_2_" class="st1" points="120.1,16.2 120.1,35.8 132.5,35.8 132.5,31.6 124.6,31.6 124.6,27.8 131.8,27.8 
			131.8,23.9 124.6,23.9 124.6,20.4 132.5,20.4 132.5,16.2 		"/>
		<path id="SVGID_1_" class="st1" d="M138.8,25.7v-5.4c0.6-0.1,1.1-0.1,1.8-0.1c1.9,0,3.2,1,3.2,2.6c0,2-1.4,3-3.5,3
			C139.7,25.7,139.4,25.7,138.8,25.7 M134.3,16.4v19.4h4.5v-6.4c0.6,0,1,0.1,1.7,0.1c0.3,0,0.5,0,0.8,0l3.3,6.4h5.1l-4.6-7.5
			c2.1-1.3,3.4-3.3,3.4-5.7c0-3.6-2.4-6.5-8.5-6.5C137.8,16.1,135.9,16.2,134.3,16.4"/>
		<path class="st1" d="M153.1,32.5c1,0,1.7,0.8,1.7,1.7c0,1-0.8,1.8-1.7,1.8c-1,0-1.7-0.8-1.7-1.8C151.3,33.3,152.1,32.5,153.1,32.5
			"/>
		<path class="st1" d="M164.9,36.1c-6.2,0-10.5-4.3-10.5-10.1c0-5.8,4.4-10.1,10.5-10.1c2.4,0,4.6,0.8,6.3,1.8l-1.1,2.8
			c-1.5-0.9-3.5-1.5-5.2-1.5c-4.3,0-6.9,2.9-6.9,7c0,4.1,2.7,7,7,7c1.7,0,3.8-0.6,5.3-1.5l1,2.8C169.7,35.3,167.4,36.1,164.9,36.1"
			/>
		<path class="st1" d="M181.5,36.1c-5.7,0-9.8-4.3-9.8-10.1c0-5.8,4.3-10.1,10-10.1c5.7,0,9.8,4.3,9.8,10.1
			C191.4,31.8,187.1,36.1,181.5,36.1 M181.6,18.9c-3.7,0-6.3,3-6.3,7.1c0,4.1,2.6,7.1,6.3,7.1c3.7,0,6.3-3.1,6.3-7.1
			C187.9,21.9,185.3,18.9,181.6,18.9"/>
		<polygon class="st1" points="209.6,35.8 209.4,24.1 203.2,33.4 202.8,33.4 196.6,24 196.4,35.8 193.1,35.8 193.9,16 194.4,15.9 
			203.1,28.9 211.6,15.9 212.1,16 212.9,35.8 		"/>
		<polygon class="st1" points="31.1,16.2 31.1,23.9 23.6,23.9 23.6,16.2 19.1,16.2 19.1,23.9 21.1,25.9 19.1,27.8 19.1,35.8 
			23.6,35.8 23.6,27.9 31.1,27.9 31.1,35.8 35.7,35.8 35.7,16.2 		"/>
	</g>
</g>
</svg>
