<svg width="40" height="40" viewBox="0 0 40 40" fill="none" xmlns="http://www.w3.org/2000/svg">
<g id="slider-arrow-desktop">
<circle id="Ellipse 2" cx="20" cy="20" r="20" transform="rotate(-180 20 20)" fill="black" fill-opacity="0.5"/>
<path id="Vector" d="M23.6344 28.6337C23.4227 28.8455 23.1421 28.9742 22.8435 28.9965C22.5449 29.0188 22.2483 28.9333 22.0075 28.7554L21.8674 28.6337L14.3663 21.1326C14.1545 20.9209 14.0258 20.6403 14.0035 20.3417C13.9812 20.0432 14.0667 19.7465 14.2446 19.5057L14.3663 19.3657L21.8674 11.8645C22.0908 11.6429 22.3895 11.5137 22.704 11.5026C23.0185 11.4915 23.3255 11.5994 23.564 11.8048C23.8024 12.0102 23.9546 12.2979 23.9902 12.6105C24.0258 12.9232 23.9422 13.2377 23.7561 13.4914L23.6344 13.6315L17.0167 20.2491L23.6344 26.8668C23.8685 27.1012 24 27.419 24 27.7503C24 28.0816 23.8685 28.3993 23.6344 28.6337Z" fill="white"/>
</g>
</svg>
